<?xml version="1.0" encoding="utf-8"?>
<!-- Generator: Adobe Illustrator 26.0.3, SVG Export Plug-In . SVG Version: 6.00 Build 0)  -->
<svg version="1.1" id="text" xmlns="http://www.w3.org/2000/svg" xmlns:xlink="http://www.w3.org/1999/xlink" x="0px" y="0px"
	 viewBox="0 0 678 536.9" style="enable-background:new 0 0 678 536.9;" xml:space="preserve">
<style type="text/css">
	.st0{fill:#FFFFFF;}
	.st1{fill:#000087;}
</style>
<g>
	<g>
		<path class="st0" d="M407.4,527.3c-12.3,0-23.1-8.3-26.3-20.2l-7.6-28.2c-0.5-1.7-0.8-3.5-0.9-5.3c-1.1-6.9,0.2-14,3.7-20.1
			c3.2-5.5,7.9-9.9,13.5-12.5H228.1c5.7,2.7,10.4,7,13.5,12.5c3.5,6.1,4.8,13.2,3.7,20.1c-0.1,1.8-0.4,3.6-0.9,5.3l-7.6,28.2
			c-3.2,11.9-14.1,20.2-26.3,20.2c-2.3,0-4.6-0.3-6.9-0.9L42.3,491.6c-1.7-0.2-3.5-0.6-5.1-1C16.3,484.9,4,463.3,9.6,442.5l7.6-28.2
			c0.4-1.5,0.9-3.1,1.5-4.5l39.1-136.1c0.8-2.8,2.8-5,5.3-6.3c-2.8-7.3-4.2-15.1-4.2-23.2c0-4.2,0.4-8.5,1.3-12.7
			c3.6-19.2,13.9-35.5,30.6-48.6l0.2-0.1c1.4-1.1,2.9-2.1,4.4-3.2l-9.5-86c-1.4-12.2,7.5-23.3,19.7-24.6l246.8-27.3
			c0.8-0.1,1.6-0.1,2.5-0.1c4.2,0,8.2,1.2,11.8,3.4c0,0,10.5,6.4,10.6,6.4c0.1,0.1,0.2,0.1,0.3,0.2c5.6,3.7,9.2,9.6,10,16.2l1.5,14
			l0.7-1.7c2.5-6.1,8-10.4,14.6-11.3l57.1-7.4c0.8-0.1,1.6-0.1,2.3-0.1c5.7,0,11.1,2.7,14.5,7.3l30.6,40.6c0.1-0.1,0.3-0.3,0.4-0.4
			c-2.2-2.4-4-5.1-5.3-8c0,0,0-0.1,0-0.1c-0.5-1.2-0.9-2.5-1.3-3.9l-2.3-7.3c-2.7-5.7-3.3-12.3-1.8-19.3c5.4-25.5,38.7-29.2,58-30.5
			c2-4.5,4.3-8.3,7.1-11.6c7.2-8.6,16.8-13.2,27.8-13.2c2.7,0,5.6,0.3,8.4,0.9c0,0,0,0,0,0c0.8,0.2,1.7,0.4,2.5,0.6
			c15,3.8,24.9,13.8,28,28.1c1,4.4,1.2,9.2,0.8,14.4c10.6,6.8,25.5,17,32.8,30c0.2,0.3,0.4,0.7,0.6,1.1c1.6,3,2.7,6,3.3,9l2.6,7.1
			c0,0.1,0.1,0.2,0.1,0.2c2.5,6.6,2.8,13.2,0.9,19.6c-3,10-9.6,17-18.6,19.9c-3,0.9-6.2,1.4-9.6,1.4c0,0,0,0,0,0c-0.6,0-1.2,0-1.7,0
			l0.1,0.2c0.1,0.5,0.2,1,0.3,1.6c0.1,0.2,0.1,0.4,0.2,0.5c2,5.2,3.9,12.9,5.5,23.5c0.4,2.3,0.7,4.7,1.1,7.2l0.2,1.2
			c1.1,7.9,1.8,15.5,2.3,20.4c0.4,4.1,0.6,6.6,0.6,6.6c0.1,0.8,0,1.6-0.1,2.4L609.5,456c-1.4,16.4-12.9,30.3-28.8,34.6
			c-1.7,0.5-3.4,0.8-5.1,1l-161.3,34.8C412,527,409.7,527.3,407.4,527.3z"/>
	</g>
	<g>
		<g>
			<path class="st0" d="M660.9,109.4l-2.9-7.8c-0.5-2.5-1.4-5-2.7-7.3l0-0.1l0,0c-6.7-12.3-22.9-22.6-33-29
				c-0.7-0.4-1.4-0.9-2.1-1.3c0.8-4.1,1.7-10.7,0.2-17.3c-1.6-7.3-6.5-16.8-20.7-20.5c-0.7-0.2-1.3-0.3-2-0.5c0,0,0,0,0,0
				c-10.7-2.2-19.9,0.9-26.5,8.9c-4.2,5-6.4,10.9-7.7,14.8c-0.8,0.1-1.6,0.1-2.4,0.2c-17,1-48.5,2.9-52.8,22.9
				c-1.3,6.1-0.2,10.7,1.7,14.1l-0.2-0.1l2.5,7.8c0.2,1,0.5,1.9,0.9,2.8l0,0l0,0c1.4,3.2,3.5,5.5,5.6,7.1c1.8,1.4,3.8,2.4,5.8,3.3
				c-0.8,0.9-1.7,1.7-2.5,2.6c-5.2,5.4-10.8,11.2-15.6,17.2c0.4-2.2-0.2-4.5-1.5-6.3l-34.7-46.1c-1.8-2.4-4.7-3.6-7.6-3.2l-57.1,7.4
				c-3,0.4-5.5,2.3-6.6,5.1l-15.5,38.6l-5.9-53.6c-0.4-3.8-2.6-7-5.6-9l0,0l0,0c-0.1,0-0.1-0.1-0.2-0.1l-10.4-6.3l0,0
				c-2.3-1.4-5-2.1-7.9-1.8L106.8,78.9c-6.8,0.7-11.6,6.8-10.9,13.6l10.2,92.3c-3,1.8-6,3.7-8.9,5.9l-0.1,0.1
				c-14.8,11.5-23.8,25.8-26.9,42.5c-0.7,3.6-1.1,7.3-1.1,10.8c0,12.2,3.7,23.2,10.7,32.5h-2l-10.2-0.2L28.3,413.1
				c-0.5,1.2-1,2.5-1.3,3.8l-7.6,28.2c-4.2,15.6,5,31.6,20.5,35.8c1.4,0.4,2.8,0.6,4.2,0.8l161.9,34.9c9.2,2.5,18.7-2.9,21.2-12.2
				l7.6-28.2c0.3-1.3,0.5-2.5,0.6-3.8c0.9-4.8,0-9.7-2.4-14c-2.7-4.8-7.2-8.2-12.5-9.7L169.9,431H448l-50.6,17.8
				c-5.3,1.5-9.7,4.9-12.5,9.7c-2.5,4.3-3.3,9.2-2.4,14c0.1,1.3,0.2,2.5,0.6,3.8l7.6,28.2c2.5,9.2,12,14.7,21.2,12.2l161.9-34.9
				c1.4-0.2,2.8-0.4,4.2-0.8c12.3-3.3,20.6-14.1,21.5-26.2l42-245.7c0,0-0.2-2.5-0.6-6.4c-0.5-5-1.2-12.3-2.3-20
				c-0.1-0.4-0.1-0.8-0.2-1.1c-0.3-2.3-0.7-4.7-1-7c-1.3-8.4-3-16.4-5-21.4c-0.1-0.2-0.2-0.5-0.3-0.7c-0.4-0.9-0.6-1.7-0.6-2.5
				c-0.1-0.3-0.1-0.6-0.2-0.8c-1.3-4.7-2.9-10.6-3.6-14.5c1,0.2,2,0.4,3.1,0.7c1.4,0.3,2.8,0.7,4.3,1c4,0.8,9.3,1.5,14.3-0.1
				c4.1-1.3,9.5-4.7,12.1-13.2C663.1,118.2,662.6,113.7,660.9,109.4L660.9,109.4z"/>
		</g>
	</g>
	<path class="st0" d="M54.5,387.9c5,0,9.2-3.1,10.7-8.1c2.7-9.3-7.3-12-5.7-17.7c0.4-1.5,1.5-2.3,2.9-2.3c1.4,0,1.9,1.2,1.2,3.8
		c-0.2,0.6,0.1,0.8,0.6,0.8h4.1c0.5,0,0.9-0.3,1-0.8c1.5-5.7-0.6-9.2-5.5-9.2c-4.7,0-8.7,2.9-10.1,7.6c-2.5,8.7,7.4,11.3,5.6,17.7
		c-0.5,1.7-1.6,2.7-3.2,2.7c-1.7,0-2.2-1.4-1.5-4.2c0.1-0.5-0.1-0.8-0.6-0.8h-4.2c-0.5,0-0.9,0.3-1,0.8
		C47.4,384.3,49.5,387.9,54.5,387.9z"/>
	<path class="st0" d="M114.3,180.2c9.4-4.1,19.4-6.2,29.8-6.2h96.8l-0.7,3.8l27.2-3l0,0l0,0c1.8-0.3,3.5-0.5,5.3-0.6l93.4-10.3
		c0.5-0.1,1-0.2,1.4-0.5c0.9-0.5,1.5-1.3,1.8-2.2c0.1-0.2,0.1-0.5,0.1-0.7s0-0.5,0-0.8l-10.3-93.1v0l-0.4-3.7c0-0.2-0.1-0.4-0.1-0.6
		c-0.1-0.5-0.4-1-0.8-1.5c-0.2-0.2-0.3-0.4-0.5-0.5c-0.2-0.1-0.4-0.3-0.6-0.4c-0.2-0.1-0.3-0.2-0.5-0.2s-0.3-0.1-0.5-0.1
		c-0.4-0.1-0.7-0.1-1.1,0l-182,20.1l-60.3,6.7l-4.5,0.5c-0.2,0-0.3,0-0.5,0.1c-0.3,0.1-0.6,0.2-0.9,0.4c-0.1,0.1-0.3,0.2-0.4,0.3
		c-0.1,0.1-0.3,0.2-0.4,0.4c-0.2,0.2-0.4,0.4-0.5,0.7c-0.1,0.2-0.3,0.4-0.3,0.7c-0.1,0.1-0.1,0.3-0.1,0.4c-0.1,0.3-0.1,0.6-0.1,0.9
		c0,0.1,0,0.3,0,0.4l0,0l9.6,87.1L114.3,180.2z M331.5,115c7.9-0.9,15.1,4.8,16,12.8c0.9,7.9-4.8,15.1-12.8,16
		c-7.9,0.9-15.1-4.8-16-12.8C317.8,123,323.6,115.9,331.5,115z M294.4,119.1c7.9-0.9,15.1,4.8,16,12.8c0.9,7.9-4.8,15.1-12.8,16
		c-7.9,0.9-15.1-4.8-16-12.8C280.7,127.1,286.5,120,294.4,119.1z M236.4,141.3l14.6-1.6c1.5-0.2,2.9,0.9,3.1,2.5l0.4,3.3
		c0.2,1.5-0.9,2.9-2.5,3.1l-14.6,1.6c-1.5,0.2-2.9-0.9-3.1-2.5l-0.4-3.3C233.8,142.8,234.9,141.4,236.4,141.3z M210.2,144.2
		l14.6-1.6c1.5-0.2,2.9,0.9,3.1,2.5l0.4,3.3c0.2,1.5-0.9,2.9-2.5,3.1l-14.6,1.6c-1.5,0.2-2.9-0.9-3.1-2.5l-0.4-3.3
		C207.5,145.7,208.6,144.3,210.2,144.2z M125.8,128.3l16.7-1.8l-1.8-16.7c-0.2-1.5,0.9-2.9,2.5-3.1l13.1-1.4
		c1.5-0.2,2.9,0.9,3.1,2.5l1.8,16.7l16.7-1.8c1.5-0.2,2.9,0.9,3.1,2.5l1.4,13.1c0.2,1.5-0.9,2.9-2.5,3.1l-16.7,1.8l1.8,16.7
		c0.2,1.5-0.9,2.9-2.5,3.1l-13.1,1.4c-1.5,0.2-2.9-0.9-3.1-2.5l-1.8-16.7l-16.7,1.8c-1.5,0.2-2.9-0.9-3.1-2.5l-1.4-13.1
		C123.1,129.8,124.2,128.4,125.8,128.3z"/>
	<path class="st0" d="M68.8,402.5c-0.1,0-0.2-0.1-0.2-0.1c-1.2-0.5-2.4-0.9-3.5-1.2c-6.6-1.8-13.6-0.9-19.5,2.5
		c-4.4,2.5-7.8,6.1-10,10.5c-0.8,1.6-1.5,3.3-2,5.1c-1.8,6.6-0.9,13.6,2.5,19.5c3.4,6,8.9,10.2,15.6,12c1.2,0.3,2.4,0.6,3.7,0.7
		c0.1,0,0.2,0,0.2,0l6.1,1.2l149.5,29c0.1,0,0.2,0,0.2,0.1c7.3,2,14.9-2.4,16.9-9.7c1-3.6,0.5-7.3-1.3-10.5s-4.8-5.5-8.4-6.5
		c-0.1,0-0.2,0-0.2-0.1l-69.5-24.5L68.8,402.5z M49,416.9c-1.1,1.4-2,3-2.5,4.7c-2.6,8.2,2.1,17.5,11.2,23.7
		c-8.9-0.6-16.6-7.3-18.2-16.5c-0.8-4.8,0.1-9.5,2.4-13.4c2.9-4.9,7.8-8.6,13.8-9.6c5.4-0.9,10.6,0.4,14.7,3.3
		C61.4,408.6,53.3,411.5,49,416.9z"/>
	<path class="st0" d="M405.5,136.9l48.3-36.8c0.5-0.4,0.7-0.5-0.1-0.7l-46.4-12.6c-0.8-0.1-0.8,0.1-0.9,0.9l-1.4,49.1
		c-0.1,0.4-0.1,0.6,0,0.6C405,137.3,405.2,137.1,405.5,136.9z M422.2,98.2l4.4,7.8l1.5-0.9l1.3,2.3l-1.5,1l1.3,2.2l-2.5,1.6
		l-1.2-2.2l-4.6,2.9v0l-1.5-2.7l0-10L422.2,98.2z"/>
	<path class="st0" d="M88.4,379.2l4.6-16c1.5-5.2-0.9-8.7-6-8.7s-9.5,3.5-11,8.8l-4.5,15.7c-1.5,5.3,0.9,8.8,6,8.8
		S86.9,384.4,88.4,379.2z M77.2,379.5l4.7-16.5c0.5-1.9,1.9-3,3.5-3s2.3,1.2,1.8,2.9l-4.8,16.8c-0.5,1.8-1.8,2.9-3.5,2.9
		S76.6,381.4,77.2,379.5z"/>
	<path class="st0" d="M260.7,368.5H255l1.3-4.7c0.6-2.1,2.2-3.5,4.2-3.5h3.4c0.5,0,0.9-0.3,1-0.8l1.1-3.7c0.1-0.5-0.1-0.8-0.6-0.8
		h-4.1c-5,0-9.3,3.5-10.8,8.7l-6.5,22.8c-0.2,0.6,0,0.8,0.6,0.8h4.2c0.5,0,0.9-0.3,1-0.8l3.6-12.7h5.7c0.5,0,0.9-0.3,1-0.8l1.1-3.7
		C261.4,368.8,261.2,368.5,260.7,368.5z"/>
	<path class="st0" d="M177.3,368.5h-6.2l1.4-4.8c0.6-2.1,2.2-3.5,4.2-3.5h4.2c0.5,0,0.9-0.3,1.1-0.8l1.1-3.7
		c0.1-0.5-0.1-0.8-0.6-0.8h-4.8c-5,0-9.3,3.5-10.8,8.6l-4.4,15.4c-1.5,5.2,0.8,8.7,5.8,8.7h4.8c0.5,0,0.9-0.3,1.1-0.8l1.1-3.7
		c0.1-0.5-0.1-0.8-0.6-0.8h-4.2c-2,0-2.8-1.4-2.2-3.5l1.5-5.1h6.2c0.6,0,0.9-0.3,1.1-0.8l1-3.5C178,368.8,177.9,368.5,177.3,368.5z"
		/>
	<path class="st0" d="M197.7,354.5c-4.9,0-9.2,3.6-10.7,8.8l-6.7,23.3c-0.2,0.6,0,0.8,0.6,0.8h4.2c0.5,0,0.9-0.3,1-0.8l3-10.5h2.2
		l0.6,10.6c0.1,0.5,0.1,0.8,0.6,0.8h4.5c0.5,0,1-0.3,1-0.8l-1-12c2.5-1.5,4.6-4,5.5-7.2l1.2-4C205,358.1,202.7,354.5,197.7,354.5z
		 M197.8,362.9l-1.3,4.6c-0.6,2.1-1.9,3.2-3.8,3.2h-2.1l2.3-7.8c0.5-1.8,1.8-2.9,3.3-2.9C197.7,360,198.4,361.1,197.8,362.9z"/>
	<polygon class="st0" points="421.1,102.4 421.1,109.4 424,107.5 	"/>
	<path class="st0" d="M221.6,354.5c-5,0-9.3,3.6-10.8,8.7l-6.7,23.3c-0.2,0.6,0,0.8,0.6,0.8h4.2c0.5,0,0.9-0.3,1-0.8l6.8-23.7
		c0.5-1.8,1.8-2.9,3.3-2.9c1.6,0,2.2,1.2,1.7,2.9l-6.8,23.7c-0.2,0.6,0.1,0.8,0.6,0.8h4.2c0.5,0,0.9-0.3,1.1-0.8l6.7-23.3
		C228.8,358.1,226.6,354.5,221.6,354.5z"/>
	<path class="st0" d="M121,387.4h4.2c0.5,0,0.9-0.3,1-0.8l7.5-26.2h4.4c0.6,0,0.9-0.3,1.1-0.8l1.1-3.7c0.1-0.5-0.1-0.8-0.6-0.8H125
		c-0.5,0-0.9,0.3-1,0.8l-1.1,3.7c-0.1,0.5,0.1,0.8,0.6,0.8h4.4l-7.5,26.2C120.2,387.1,120.4,387.4,121,387.4z"/>
	<path class="st0" d="M107.3,355.9c0.2-0.6,0-0.8-0.5-0.8h-4.2c-0.6,0-0.9,0.3-1.1,0.8l-6.7,23.3c-1.5,5.2,0.8,8.7,5.8,8.7
		c5,0,9.3-3.6,10.8-8.7l6.7-23.3c0.2-0.6-0.1-0.8-0.6-0.8h-4.2c-0.5,0-0.9,0.3-1.1,0.8l-6.8,23.7c-0.5,1.8-1.8,2.9-3.3,2.9
		c-1.6,0-2.2-1.2-1.7-2.9L107.3,355.9z"/>
	<path class="st0" d="M151.3,355.1h-4.1c-0.6,0-0.9,0.3-1.1,0.8l-8.8,30.7c-0.2,0.6,0,0.8,0.6,0.8h4.1c0.5,0,0.9-0.3,1.1-0.8
		l3.7-12.8h4.7l-3.7,12.8c-0.2,0.6,0,0.8,0.5,0.8h4.2c0.5,0,0.9-0.3,1-0.8l8.8-30.7c0.1-0.5-0.1-0.8-0.6-0.8h-4.2
		c-0.5,0-0.9,0.3-1,0.8l-3.6,12.6h-4.7l3.6-12.6C152.1,355.3,151.8,355.1,151.3,355.1z"/>
	<path class="st0" d="M385.6,138.8c0.1,0,0.3,0.1,0.6,0.1l16-0.4c0.6,0,0.7-0.3,0.6-0.8l1.3-46.2L385.6,138
		C385.4,138.6,385.4,138.7,385.6,138.8z M390.5,127.9l1.8-0.3l2.3-6.4l-2,0.8l0.6-1.7l2-0.8l1.9-0.3l-3,8.1l0.8-0.1l0.2-0.5
		c0.3,0.2,0.6,0.3,0.9,0.3c0.3,0.1,0.7,0.1,1,0c0.5-0.1,1-0.3,1.4-0.5c0.4-0.3,0.6-0.6,0.8-1.1c0.2-0.4,0.1-0.8-0.1-0.9
		c-0.2-0.2-0.6-0.2-1.2-0.2l-0.8,0.1l0.6-1.7l0.8-0.1c0.5-0.1,0.9-0.3,1.3-0.5c0.3-0.2,0.6-0.6,0.7-1c0.1-0.4,0.1-0.7,0-0.8
		c-0.2-0.2-0.5-0.2-0.9-0.1c-0.3,0.1-0.7,0.2-1,0.3s-0.8,0.3-1.1,0.6l0.7-1.9c0.5-0.2,0.9-0.4,1.3-0.5c0.4-0.1,0.8-0.2,1.2-0.3
		c1-0.2,1.7-0.1,2.1,0.2c0.4,0.3,0.4,0.9,0.1,1.8c-0.2,0.6-0.5,1.1-0.9,1.5c-0.4,0.4-0.8,0.7-1.4,1c0.5,0.1,0.8,0.3,0.9,0.7
		c0.1,0.4,0.1,0.9-0.2,1.5c-0.4,1-0.9,1.8-1.7,2.4c-0.8,0.6-1.8,1-2.9,1.2c-0.4,0.1-0.8,0.1-1.2,0.1c-0.1,0-0.2,0-0.2,0l0,0
		l-5.5,0.9l0,0L390.5,127.9z"/>
	<path class="st0" d="M445.4,174l16-8.2c0.7-0.4,0.8-0.5,0.2-0.8l-55.1-23.3c-0.8-0.3-0.8-0.3-0.6,0.5l9.3,31.7h19.3
		c-0.3-0.1-0.6-0.1-0.9-0.2c-0.8-0.2-1.5-0.4-2.1-0.7l0,0c-1.4-0.6-2.4-1.4-2.8-2.3c-0.4-0.9-0.3-1.9,0.3-3c0.4-0.6,0.9-1.1,1.6-1.5
		c0.7-0.4,1.8-0.8,3.5-1.2l3.9-1l-5.3-2.3l1.3-2.1l8.8,3.7l-1.3,2.1l-6.7,1.8c-0.6,0.2-1.1,0.4-1.5,0.6c-0.4,0.2-0.7,0.5-0.9,0.9
		c-0.3,0.5-0.4,1-0.2,1.5c0.2,0.5,0.6,0.9,1.2,1.1c0.5,0.2,1.1,0.3,1.8,0.4c0.7,0.1,1.5,0,2.4-0.1l-1.4,2.3H445.4z M428.3,164.5
		c-0.7,2.1-1.7,3.5-3,4.2c-1.3,0.8-2.7,0.8-4.3,0.1c-1.6-0.7-2.6-1.8-3.1-3.3c-0.5-1.5-0.3-3.3,0.4-5.3c0.7-2.1,1.7-3.5,3-4.2
		c1.3-0.7,2.7-0.8,4.3-0.1c1.6,0.7,2.6,1.8,3.1,3.2C429.2,160.6,429.1,162.4,428.3,164.5z"/>
	<path class="st0" d="M402.5,140.6l-15.6,0.4c-1,0-0.9,0.2-0.5,0.8l23.3,32.2h3.4l-9.6-32.8C403.2,140.6,403.2,140.6,402.5,140.6z
		 M402.7,155.9l-3.4-4.5c-0.3-0.4-0.6-0.7-0.8-1s-0.5-0.4-0.7-0.5c-0.3-0.1-0.5-0.1-0.6,0.1c-0.1,0.2-0.1,0.6,0.1,1.1
		c0.1,0.4,0.3,0.9,0.6,1.4c0.3,0.5,0.6,1.1,1,1.7l-1.6-0.6l0,0c-0.3-0.6-0.6-1.2-0.8-1.8c-0.2-0.6-0.5-1.1-0.6-1.7
		c-0.4-1.2-0.5-2-0.3-2.5c0.2-0.5,0.6-0.6,1.3-0.3c0.4,0.2,0.8,0.5,1.2,0.9c0.4,0.4,1.1,1.2,1.9,2.3l2,2.6l-1.4-4.3l1.4,0.6l2.3,7.1
		L402.7,155.9z"/>
	<path class="st0" d="M424.8,158.1c-0.7-0.3-1.3-0.2-1.8,0.4c-0.5,0.5-1,1.5-1.6,3.1c-0.5,1.6-0.8,2.7-0.7,3.5
		c0.1,0.8,0.4,1.3,1.1,1.6c0.7,0.3,1.3,0.2,1.8-0.4c0.5-0.5,1-1.5,1.6-3.1c0.6-1.6,0.8-2.7,0.7-3.5S425.5,158.4,424.8,158.1z"/>
	<polygon class="st0" points="449.5,134.4 443.9,138 447.3,139.5 	"/>
	<path class="st0" d="M472.7,132.4c0.1,0.1,0.2,0.1,0.3,0.2l0,0c0.4,0.1,0.8,0.1,1.3,0c0.7-0.1,1.1-0.4,1.4-0.8
		c0.3-0.4,0.3-0.9,0.2-1.6c-0.2-0.6-0.4-1.1-0.9-1.4c-0.4-0.3-1-0.3-1.6-0.2c-0.7,0.1-1.1,0.4-1.4,0.8c-0.3,0.4-0.3,0.9-0.2,1.6
		C472,131.7,472.3,132.2,472.7,132.4z"/>
	<path class="st0" d="M457.7,101.8l8,60.2c0,0.4,0,0.6,0.1,0.6c0.1,0,0.2-0.2,0.4-0.5l31.6-35.3c0.6-0.8,0.8-1.1,0-1.6l-39.3-23.9
		C457.7,100.9,457.7,101.4,457.7,101.8z M470.4,126.7c0.8-1.2,2.1-2,4-2.3c1.9-0.3,3.5,0,4.9,1c1.4,1,2.3,2.6,2.8,4.7
		c0.2,0.7,0.3,1.3,0.4,1.9c0.1,0.6,0.1,1.3,0.1,1.9l-2.1,0.4c0.1-0.7,0.1-1.3,0.1-1.8c0-0.6-0.1-1.1-0.2-1.6
		c-0.3-1.1-0.7-1.9-1.4-2.4c-0.6-0.5-1.4-0.8-2.4-0.7c0.4,0.4,0.6,0.8,0.9,1.3c0.2,0.5,0.4,1,0.6,1.6c0.4,1.5,0.3,2.7-0.2,3.7
		c-0.5,1-1.3,1.7-2.4,1.9c-0.3,0.1-0.6,0.1-0.9,0.1l0.6,2.4l-3,0.5v0l-0.8-3.5l1.2-0.2c-0.1-0.1-0.2-0.2-0.4-0.3
		c-1-0.9-1.7-2.2-2.1-3.9C469.5,129.5,469.7,127.9,470.4,126.7z"/>
	<path class="st0" d="M468.1,99.2c0.3,0.1,0.7,0.1,1.2,0c0.5-0.1,0.8-0.2,0.9-0.4c0.1-0.2,0.1-0.5-0.1-0.8c-0.2-0.3-0.4-0.5-0.7-0.6
		c-0.3-0.1-0.7-0.1-1.2,0c-0.5,0.1-0.7,0.2-0.9,0.4c-0.1,0.2-0.1,0.5,0,0.8C467.6,98.9,467.8,99.1,468.1,99.2z"/>
	<path class="st0" d="M476.8,174l19.7-42.3l-29.7,33.1c-0.4,0.5-0.4,0.5-0.1,0.9l7.6,8.3H476.8z M476.7,157.4l0.7,1l2.8-5.3
		l-0.9-0.6l0.7-1.4l1,0.6l0.8,1.1l-3.5,6.7l0.6,0.9c0.2-0.8,0.6-1.8,1.1-2.8c0.7-1.3,1.4-2.2,2.1-2.6c0.7-0.4,1.2-0.3,1.7,0.4
		c0.1,0.2,0.3,0.4,0.4,0.7c0.1,0.2,0.2,0.5,0.3,0.8l-0.8,1.5c0-0.4-0.1-0.7-0.2-0.9c-0.1-0.2-0.2-0.5-0.3-0.6
		c-0.2-0.3-0.5-0.4-0.8-0.3c-0.3,0.2-0.7,0.6-1,1.2c0.2,0,0.4,0,0.5,0c0.2,0.1,0.3,0.2,0.4,0.4c0.3,0.4,0.4,1,0.4,1.8
		c-0.1,0.8-0.3,1.6-0.7,2.3c-0.5,0.9-0.9,1.4-1.4,1.6c-0.2,0.1-0.5,0.1-0.7,0l0,0c-0.2-0.1-0.4-0.2-0.6-0.5
		c-0.4-0.6-0.5-1.4-0.4-2.4c0-0.1,0-0.1,0-0.2l-0.6,1.1l-2.2-3.1L476.7,157.4z"/>
	<path class="st0" d="M456.1,96.9l6.2-17c0.2-0.5,0.3-0.7-0.5-0.6l-50.7,6.2l44.2,12C455.9,97.7,455.9,97.3,456.1,96.9z M451.4,87.9
		l-3.2,0.4l-1.6-4.7l-1.7,0.2l-1.3,0.2l-1.7,0.2l1.3,3.7l3-0.7l0.3,1l-2.9,0.7l-3.2,0.4l-1.6-4.7l-3,0.4l-0.3-1l7.8-1l1.3-0.2l7.8-1
		l0.4,1l-3,0.4L451,87l2.9-0.7l0.4,1L451.4,87.9z"/>
	<path class="st0" d="M458.4,98.8l37.7,22.9h0l-31.2-40.8c-0.4-0.5-0.6-0.5-0.7,0.1l-6.1,16.7C457.9,98.3,457.9,98.5,458.4,98.8z
		 M465.9,96.6c0.4-0.6,1.3-1.1,2.5-1.3c0.8-0.1,1.5-0.2,2.2-0.1l-0.5-0.8l2.1-0.4l1,1.7l-0.7,0.1c0.9,0.4,1.5,1.1,2,1.9
		c0.2,0.3,0.3,0.6,0.5,0.9c0.1,0.3,0.2,0.6,0.2,0.9l-1.5,0.3c0-0.3-0.1-0.6-0.1-0.9c-0.1-0.3-0.2-0.5-0.3-0.8
		c-0.3-0.5-0.7-0.9-1.2-1.1c-0.5-0.2-1.1-0.3-1.8-0.2c0.3,0.2,0.6,0.4,0.8,0.6s0.4,0.5,0.6,0.7c0.4,0.7,0.5,1.3,0.3,1.9
		c-0.2,0.5-0.7,0.8-1.5,1c-0.9,0.2-1.7,0.1-2.5-0.3c-0.8-0.4-1.4-1-1.9-1.8C465.6,98,465.5,97.2,465.9,96.6z"/>
	<path class="st0" d="M480,162.3L480,162.3c0.1,0,0.2,0,0.3-0.1c0.2-0.1,0.4-0.4,0.7-0.9c0.3-0.5,0.4-0.9,0.5-1.2
		c0.1-0.3,0-0.6-0.1-0.8c-0.1-0.2-0.3-0.2-0.5-0.1c-0.2,0.1-0.4,0.4-0.7,0.9c-0.3,0.5-0.4,0.9-0.5,1.2c-0.1,0.3,0,0.6,0.1,0.8
		C479.8,162.2,479.9,162.3,480,162.3z"/>
	<path class="st0" d="M463,163.3c0.8,0.4,0.8,0.3,0.6-0.5l-8-60.3c-0.2-0.9-0.1-0.9-1-0.4l-48,36.6c-0.4,0.3-0.7,0.5,0,0.8l0,0
		L463,163.3z M442.1,136.8l7.9-5.2l3.5,1.5l-3.3,7.6l1.7,0.7l-1,2.3l-1.7-0.7l-0.9,2.2l-2.9-1.3l0.9-2.2l-5.4-2.3L442.1,136.8z
		 M430.6,135.1l2.7,1.2l3.3-7.8l-3.1-0.6l0.9-2.1l3.1,0.6l3,1.3l-4.2,9.9l2.7,1.2l-0.9,2.2l-8.4-3.6L430.6,135.1z"/>
	<path class="st0" d="M459.8,173.9c0.4,0,0.6,0.1,0.9,0.1h10.7l-6.2-6.7c-0.5-0.4-0.7-0.5-1.3-0.2l-13.7,7h7
		C458,173.8,458.9,173.8,459.8,173.9z"/>
	<path class="st0" d="M241.1,373.2h-9.9c-0.5,0-0.9,0.3-1,0.8l-0.9,3c-0.1,0.5,0.1,0.8,0.6,0.8h9.9c0.6,0,0.9-0.3,1.1-0.8l0.9-3
		C241.9,373.5,241.7,373.2,241.1,373.2z"/>
	<path class="st0" d="M429.4,354.5c-2.1,0-4,0.8-5.7,2c-0.9-1.2-2.3-2-4.5-2c-4.8,0-8.9,3.5-10.5,8.8l-6.7,23.2
		c-0.2,0.6,0,0.8,0.6,0.8h4.1c0.6,0,0.9-0.3,1.1-0.8l6.8-23.6c0.5-1.9,1.6-3,3.1-3c1.4,0,2,1.1,1.4,3l-6.8,23.6
		c-0.2,0.6,0,0.8,0.5,0.8h4.1c0.6,0,0.9-0.3,1.1-0.8l6.8-23.6c0.5-1.9,1.7-3,3.1-3c1.5,0,2,1.1,1.4,3l-6.8,23.6
		c-0.2,0.6,0,0.8,0.5,0.8h4.1c0.5,0,0.9-0.3,1.1-0.8l6.7-23.2C436.4,358,434.3,354.5,429.4,354.5z"/>
	<path class="st0" d="M452.5,387.4c0.5,0,0.9-0.3,1-0.8l6.8-23.7c0.5-1.8,1.8-2.9,3.3-2.9c1.6,0,2.2,1.2,1.7,2.9l-6.8,23.7
		c-0.2,0.6,0.1,0.8,0.6,0.8h4.2c0.5,0,0.9-0.3,1.1-0.8l6.7-23.3c1.5-5.2-0.8-8.7-5.8-8.7c-5,0-9.3,3.6-10.8,8.7l-6.7,23.3
		c-0.2,0.6,0,0.8,0.6,0.8H452.5z"/>
	<path class="st0" d="M590,354.6c-5,0-9.5,3.5-11,8.8l-4.5,15.7c-1.5,5.3,0.9,8.8,6,8.8s9.5-3.5,10.9-8.7l4.6-16
		C597.4,358.1,595,354.6,590,354.6z M590.2,362.8l-4.8,16.8c-0.5,1.8-1.8,2.9-3.5,2.9s-2.4-1.1-1.8-3l4.7-16.5c0.5-1.9,1.9-3,3.5-3
		C590.1,359.9,590.8,361.1,590.2,362.8z"/>
	<path class="st0" d="M449.1,355.1H445c-0.6,0-0.9,0.3-1.1,0.8l-8.8,30.7c-0.2,0.6,0,0.8,0.6,0.8h4.1c0.5,0,0.9-0.3,1.1-0.8
		l8.8-30.7C449.9,355.3,449.6,355.1,449.1,355.1z"/>
	<path class="st0" d="M529.2,354.9h-4.8c-5,0-9.3,3.5-10.8,8.6l-4.4,15.4c-1.5,5.2,0.8,8.7,5.8,8.7h4.8c0.5,0,0.9-0.3,1.1-0.8
		l1.1-3.7c0.1-0.5-0.1-0.8-0.6-0.8h-4.2c-2,0-2.8-1.4-2.2-3.5l1.5-5.1h6.2c0.6,0,0.9-0.3,1.1-0.8l1-3.5c0.1-0.5,0-0.8-0.6-0.8h-6.2
		l1.4-4.8c0.6-2.1,2.2-3.5,4.2-3.5h4.2c0.5,0,0.9-0.3,1.1-0.8l1.1-3.7C529.9,355.2,529.7,354.9,529.2,354.9z"/>
	<path class="st0" d="M581.4,412.2c-1.7-2.8-4-5.2-6.7-7.1c-0.7-0.5-1.5-1-2.2-1.4c-6-3.4-12.9-4.3-19.5-2.5
		c-1.2,0.3-2.4,0.7-3.5,1.2c-0.1,0-0.2,0.1-0.2,0.1l-80,28.1l-69.5,24.5c-0.1,0-0.2,0.1-0.2,0.1c-3.6,1-6.5,3.3-8.4,6.5
		s-2.3,6.9-1.3,10.5c2,7.3,9.6,11.7,16.9,9.7c0.1,0,0.2,0,0.2-0.1l149.5-29l6.1-1.2c0.1,0,0.2,0,0.2,0c1.3-0.2,2.5-0.4,3.7-0.7
		c6.6-1.8,12.2-6.1,15.6-12c1-1.8,1.8-3.6,2.4-5.6c1.3-4.5,1.4-9.3,0.1-14C583.8,416.7,582.7,414.3,581.4,412.2z M578.4,428.9
		c-1.6,9.2-9.3,15.8-18.2,16.5c9.1-6.2,13.9-15.5,11.2-23.7c-0.8-2.4-2.2-4.5-4-6.3c-4.5-4.4-11.9-6.7-20-6.3
		c4.1-2.9,9.4-4.2,14.7-3.3c4.8,0.8,8.9,3.3,11.8,6.8c0.3,0.3,0.6,0.7,0.8,1.1c2.1,2.9,3.5,6.4,3.8,10.2
		C578.8,425.5,578.7,427.1,578.4,428.9z"/>
	<path class="st0" d="M529.6,377l-2.7,9.6c-0.2,0.6,0,0.8,0.6,0.8h4.2c0.5,0,0.9-0.3,1-0.8l2.9-10c0.5-1.7,1.8-2.9,3.2-2.9
		c1.5,0,2.1,1.2,1.6,2.9l-2.9,10c-0.2,0.6,0.1,0.8,0.6,0.8h4.2c0.5,0,0.9-0.3,1.1-0.8l2.7-9.6c0.7-2.4,0.4-4.5-0.9-6
		c2.1-1.5,3.6-3.5,4.4-6l2.6-9.2c0.1-0.5-0.1-0.8-0.6-0.8h-4.2c-0.5,0-0.9,0.3-1.1,0.8l-2.8,9.6c-0.5,1.7-1.7,2.9-3.2,2.9
		c-1.4,0-2.1-1.2-1.6-2.9l2.8-9.6c0.1-0.5-0.1-0.8-0.6-0.8h-4.2c-0.6,0-0.9,0.3-1.1,0.8l-2.6,9.2c-0.7,2.5-0.4,4.5,0.9,6
		C531.9,372.5,530.3,374.5,529.6,377z"/>
	<path class="st0" d="M550.5,387.4h4.2c0.5,0,0.9-0.3,1-0.8l3-10.3h2.5c5,0,9.2-3.4,10.7-8.5l1.3-4.4c1.5-5.2-0.9-8.8-5.9-8.8
		c-4.9,0-9.1,3.6-10.6,8.8l-6.7,23.3C549.7,387.1,549.9,387.4,550.5,387.4z M562.4,362.9c0.5-1.8,1.8-2.9,3.3-2.9
		c1.6,0,2.2,1.1,1.7,2.9l-1.4,5c-0.6,2-1.8,3-3.7,3h-2.1L562.4,362.9z"/>
	<path class="st0" d="M488.8,364.3h4.2c0.5,0,0.9-0.3,1-0.8c1.4-5.5-1-9-5.7-9c-4.9,0-9.2,3.5-10.7,8.7l-4.6,16
		c-1.5,5.2,0.9,8.7,5.8,8.7c5,0,9.5-3.5,10.9-8.6l2.1-7.3c0.4-1.6-0.1-2.4-1.7-2.4H485c-0.6,0-0.9,0.3-1.1,0.8l-1,3.3
		c-0.2,0.6,0,0.8,0.6,0.8h1.8l-1.5,5.2c-0.5,1.7-1.8,2.8-3.4,2.8c-1.6,0-2.4-1.1-1.8-2.9l4.8-16.8c0.5-1.8,1.7-2.9,3.2-2.9
		c1.4,0,2,1.1,1.4,3.6C488.1,364.1,488.3,364.3,488.8,364.3z"/>
	<path class="st0" d="M316.6,368.5h-6.2l1.4-4.8c0.6-2.1,2.2-3.5,4.2-3.5h4.2c0.5,0,0.9-0.3,1.1-0.8l1.1-3.7
		c0.1-0.5-0.1-0.8-0.6-0.8h-4.8c-5,0-9.3,3.5-10.8,8.6l-4.4,15.4c-1.5,5.2,0.8,8.7,5.8,8.7h4.8c0.5,0,0.9-0.3,1.1-0.8l1.1-3.7
		c0.1-0.5-0.1-0.8-0.6-0.8h-4.2c-2,0-2.8-1.4-2.2-3.5l1.5-5.1h6.2c0.6,0,0.9-0.3,1.1-0.8l1-3.5C317.3,368.8,317.1,368.5,316.6,368.5
		z"/>
	<path class="st0" d="M396.2,354.6c-4.9,0-9.3,3.5-10.8,8.7l-6.7,23.3c-0.2,0.6,0,0.8,0.6,0.8h4.2c0.5,0,0.9-0.3,1-0.8l2.6-9.1h5
		l-2.6,9.1c-0.2,0.6,0.1,0.8,0.6,0.8h4.2c0.5,0,0.9-0.3,1.1-0.8l6.7-23.3C403.5,358,401.2,354.6,396.2,354.6z M396.3,362.9l-2.7,9.3
		h-5l2.7-9.3c0.5-1.8,1.8-2.9,3.3-2.9C396.2,360,396.8,361.1,396.3,362.9z"/>
	<path class="st0" d="M611.6,180.5h-27.9h-6.7h-24.8h-8c-1.2,0-2.3,0-3.5,0.1c-11.3,0.5-22,3.8-32,9.6c-2.6,1.5-5.1,3.2-7.5,5.1
		l1.7-9.1l1-5.7h-21h-27.1h-18.3h-4.8h-15.5h-2.3h-0.6h-9.6h-0.8c-11.3,0-22.1,2.7-32.1,7.9c-2.5,1.3-5,2.8-7.4,4.4l1.6-8.7l0.7-3.7
		h-5.2h-83.1c-14.8,0-28.7,4.6-41.3,13.5c-0.1,0.1-0.2,0.2-0.3,0.2c-0.5,0.4-1,0.7-1.5,1.1l-0.2,0.1c-2.1,1.6-4,3.3-5.9,5l1-5.5
		l0.9-4.7l1.8-9.8h-17.2h0h-71.7c-10.2,0-19.9,2.2-29.1,6.5c-2.7,1.3-5.3,2.7-7.9,4.3c-2,1.3-4,2.7-6,4.2l-0.1,0.1
		C87.5,206,79.3,219,76.5,234.1c-0.6,3.2-1,6.5-1,9.6c0,12.6,4.5,23.8,12.9,32.7c0.8,0.9,1.7,1.7,2.6,2.6c1.5,1.3,3,2.6,4.6,3.7
		H74.1l-17.4,61h99.5c10.1,0,19.7-2.2,28.8-6.4c2.5-1.2,4.9-2.5,7.3-3.9l-1.5,8.3l-0.4,2h67.2l9.5-51.1h52.4h6.5c0,0.7,0,1.5,0,2.2
		c0,1.4,0.1,2.9,0.2,4.3c1,12.2,6.3,22.9,15.5,31.1c10,8.9,22.4,13.5,37,13.5h95l1.9-10.3l1.5-7.9c1.4,1.7,3,3.3,4.7,4.8
		c0.3,0.3,0.6,0.5,0.9,0.8c9.8,8.4,21.9,12.7,36.1,12.7h64.8h18.7l4.1-21.8l7.4-39.2h-0.1l9.3-51.1h0l1.7-9.2l3.9-20.5l3.2-17.1
		l0.8-4.3H626H611.6z M191.4,318.1c-10.8,8.3-22.6,12.5-35.3,12.5H75.3l9.6-35h77.7c1.8,0,3.5-0.9,5.1-2.8c1.5-1.5,2.3-3.2,2.6-5.1
		c0.5-2.2,0.2-4.2-0.7-5.7c-1-1.6-2.3-2.4-4-2.4h-37.3c-5.8,0-11.2-0.9-16-2.7c-4.6-1.7-8.8-4.2-12.4-7.6
		c-7.5-6.8-11.2-15.4-11.2-25.6c0-2.3,0.2-4.7,0.7-7.2c2.2-12,8.8-22.3,19.7-30.8c2.6-1.9,5.2-3.6,7.8-5.1
		c8.5-4.7,17.6-7.1,27.3-7.1h73.3l-0.6,3l-6,32h-73.1c-1.9,0-3.7,0.9-5.1,2.6c-1.5,1.7-2.4,3.5-2.7,5.4c-0.4,2.2-0.1,4.2,0.8,5.7
		s2.3,2.4,4.1,2.4h37.1c11.6,0,21.1,3.4,28.6,10.2c7.1,6.5,10.9,14.6,11.2,24.2c0,0.5,0,0.9,0,1.4c0,2.3-0.2,4.7-0.7,7.2
		C208.8,299.6,202.2,309.8,191.4,318.1z M256.2,279.6l-0.1,0.4l-9.4,50.7H206l9.5-51.5l7.9-42.6c2.2-12,8.8-22.3,19.7-30.8
		c10.8-8.2,22.6-12.2,35.3-12.2h72.7l-6.4,35h-72.9c-1.8,0-3.5,0.9-4.9,2.6c-1.5,1.7-2.4,3.5-2.7,5.4l-1.5,8.1h79.1l-6.6,35H256.2z
		 M467.5,305.3l-4.7,25.4h-84.2c-11.3,0-20.8-3.4-28.3-10.1c-7.6-6.8-11.3-15.3-11.3-25.7c0-2.3,0.2-4.7,0.5-7.2l0.2-1l9.3-50
		c2.2-12,8.8-22.3,19.7-30.8c10.7-8.2,22.5-12.2,35.3-12.2h11h13.3h60l-6.4,35h-84.4c-1.8,0-3.5,0.9-5,2.6c-1.5,1.7-2.5,3.5-2.8,5.4
		l-9.3,51.3c-0.4,1.8-0.1,3.5,0.7,5.3c0.5,1,1.2,1.8,2.1,2.2c0.6,0.3,1.3,0.4,2.1,0.4h1.6h41.9l2.9-16.8h-21.4l6.4-35h62.3
		L467.5,305.3z M615.6,199.9l-5.4,28.6h-72.7c-1.8,0-3.5,0.9-5,2.6c-1.5,1.7-2.5,3.5-2.8,5.4l-1.5,8.1h79.1l-6.4,35h-79.1l-1.5,8.1
		c-0.4,1.8-0.1,3.5,0.7,5.3c0.9,1.8,2.3,2.7,4.2,2.7h72.7l-2.2,11.7l-2.4,12.9l-1.9,10.4h-3.5h-69.2c-11.3,0-20.8-3.4-28.3-10.1
		c-4.4-3.9-7.5-8.5-9.3-13.6c-1.3-3.7-2-7.8-2-12.1c0-2.3,0.2-4.7,0.5-7.2l9.5-51.1c2.2-12,8.8-22.3,19.7-30.8
		c10.7-8.2,22.5-12.2,35.3-12.2h46.7h26L615.6,199.9z"/>
	<path class="st0" d="M280.4,354.5c-4.9,0-9.2,3.6-10.7,8.8l-6.7,23.3c-0.2,0.6,0,0.8,0.6,0.8h4.2c0.5,0,0.9-0.3,1-0.8l3-10.5h2.2
		l0.6,10.6c0.1,0.5,0.1,0.8,0.6,0.8h4.5c0.5,0,1-0.3,1-0.8l-1-12c2.5-1.5,4.6-4,5.5-7.2l1.2-4C287.8,358.1,285.5,354.5,280.4,354.5z
		 M280.6,362.9l-1.3,4.6c-0.6,2.1-1.9,3.2-3.8,3.2h-2.1l2.3-7.8c0.5-1.8,1.8-2.9,3.3-2.9C280.5,360,281.1,361.1,280.6,362.9z"/>
	<path class="st0" d="M336.8,354.9h-5.7c-1.6,0-2.7,0.8-3.1,2.4l-8,27.9c-0.5,1.6,0.2,2.4,1.8,2.4h5.7c5,0,9.3-3.5,10.8-8.7
		l4.4-15.3C344.1,358.4,341.9,354.9,336.8,354.9z M336.9,363.4l-4.5,15.7c-0.6,2-1.9,3.2-3.7,3.2h-2l6.3-22.1h2
		C336.9,360.2,337.5,361.3,336.9,363.4z"/>
	<path class="st0" d="M373.2,354.5c-4.9,0-9.2,3.5-10.7,8.7l-4.6,16c-1.5,5.2,0.9,8.7,5.8,8.7c5,0,9.5-3.5,10.9-8.6l2.1-7.3
		c0.5-1.6-0.1-2.4-1.7-2.4h-5.2c-0.6,0-0.9,0.3-1.1,0.8l-1,3.3c-0.2,0.6,0,0.8,0.6,0.8h1.8l-1.5,5.2c-0.5,1.7-1.8,2.8-3.4,2.8
		c-1.6,0-2.4-1.1-1.8-2.9l4.8-16.8c0.5-1.8,1.7-2.9,3.2-2.9c1.4,0,2,1.1,1.4,3.6c-0.1,0.5,0.1,0.8,0.7,0.8h4.2c0.5,0,0.9-0.3,1-0.8
		C380.3,358,377.9,354.5,373.2,354.5z"/>
	<path class="st0" d="M639.2,85.3c-4.8-4.2-10.2-8-14.9-11.1c-6.2-4.1-11.1-6.9-11.6-7.8c-0.2-0.3,0.3-2.2,0.8-4.8
		c1.5-8.3,2.9-24.6-15.5-29.3c-24.2-6.3-28.1,22-29.3,22.8c-2.5,1.6-49.5-0.8-53.5,18.1c-0.4,1.8-0.5,3.4-0.4,4.8
		c1.1,13.5,22.9,11.2,26.2,17.4c1.2,2.3-3,7.4-9,13.8c-9.6,10.2-23.9,23.8-28.7,35.3c-0.9,2.2-1.3,3.9-1.1,5.2
		c0.1,0.4,0.2,0.8,0.3,1.1c0.8,1.5,2.7,2.3,5.9,3.2c2.3,0.6,4.5,1.2,6.8,1.7c8.8,2.3,17.2,4.4,25.1,6.4c4.5,1.1,6.7-1,9.9-3.9
		c7.1-6.5,16.5-17.5,19.8-16.6c2.7,0.7,5.1,10.1,7.6,18.5c0.6,2,1.2,3.9,1.7,5.6c1.4,4.1,2.3,7.1,6.8,8.2c0.1,0,0.2,0,0.2,0.1h40.8
		c0.8-20.7-15-55.3-9.5-58.9c6.5-4.2,27.7,11.5,33.3-7C653.2,100.4,647.2,92.3,639.2,85.3z"/>
	<path class="st0" d="M301,355.1h-4.1c-0.6,0-0.9,0.3-1.1,0.8l-8.8,30.7c-0.2,0.6,0,0.8,0.6,0.8h4.1c0.5,0,0.9-0.3,1.1-0.8l8.8-30.7
		C301.7,355.3,301.5,355.1,301,355.1z"/>
	<g>
		<g>
			<path class="st1" d="M472,135.2c0.1,0.1,0.2,0.2,0.4,0.3l-1.2,0.2l0.8,3.5v0l3-0.5l-0.6-2.4c0.3,0,0.6,0,0.9-0.1
				c1.1-0.2,1.9-0.8,2.4-1.9c0.5-1,0.5-2.3,0.2-3.7c-0.1-0.6-0.3-1.1-0.6-1.6c-0.2-0.5-0.5-0.9-0.9-1.3c1-0.1,1.8,0.2,2.4,0.7
				c0.6,0.5,1.1,1.3,1.4,2.4c0.1,0.5,0.2,1,0.2,1.6c0,0.6,0,1.2-0.1,1.8l2.1-0.4c0-0.6,0-1.3-0.1-1.9c-0.1-0.6-0.2-1.3-0.4-1.9
				c-0.5-2.1-1.4-3.6-2.8-4.7c-1.4-1-3-1.3-4.9-1c-1.9,0.3-3.2,1.1-4,2.3c-0.8,1.2-0.9,2.7-0.5,4.6C470.4,133,471.1,134.3,472,135.2
				z M472,129.5c0.3-0.4,0.7-0.6,1.4-0.8c0.7-0.1,1.2-0.1,1.6,0.2c0.4,0.3,0.7,0.7,0.9,1.4c0.2,0.7,0.1,1.2-0.2,1.6
				c-0.3,0.4-0.7,0.6-1.4,0.8c-0.5,0.1-0.9,0.1-1.3,0l0,0c-0.1,0-0.2-0.1-0.3-0.2c-0.4-0.3-0.7-0.7-0.9-1.4
				C471.7,130.4,471.7,129.9,472,129.5z"/>
		</g>
	</g>
	<g>
		<g>
			<path class="st1" d="M445.4,143.9l2.9,1.3l0.9-2.2l1.7,0.7l1-2.3l-1.7-0.7l3.3-7.6l-3.5-1.5l-7.9,5.2l-1.1,2.7l5.4,2.3
				L445.4,143.9z M443.9,138l5.6-3.6l-2.2,5.1L443.9,138z"/>
		</g>
	</g>
	<g>
		<polygon class="st1" points="451,87 449.7,83.3 452.7,82.9 452.4,81.9 444.5,82.9 443.2,83.1 435.4,84.1 435.7,85.1 438.7,84.8 
			440.3,89.4 443.5,89 446.5,88.3 446.1,87.3 443.2,88 441.9,84.3 443.6,84.1 444.9,83.9 446.6,83.7 448.2,88.4 451.4,87.9 
			454.3,87.3 454,86.3 		"/>
	</g>
	<g>
		<g>
			<path class="st1" d="M468,100.6c0.8,0.4,1.6,0.5,2.5,0.3c0.8-0.2,1.3-0.5,1.5-1c0.2-0.5,0.1-1.2-0.3-1.9
				c-0.2-0.3-0.3-0.5-0.6-0.7s-0.5-0.4-0.8-0.6c0.7-0.1,1.3,0,1.8,0.2c0.5,0.2,0.9,0.6,1.2,1.1c0.1,0.3,0.2,0.5,0.3,0.8
				c0.1,0.3,0.1,0.5,0.1,0.9l1.5-0.3c-0.1-0.3-0.1-0.6-0.2-0.9c-0.1-0.3-0.3-0.6-0.5-0.9c-0.5-0.9-1.2-1.5-2-1.9l0.7-0.1l-1-1.7
				l-2.1,0.4l0.5,0.8c-0.7-0.1-1.4-0.1-2.2,0.1c-1.3,0.2-2.1,0.7-2.5,1.3c-0.4,0.6-0.4,1.4,0.2,2.3
				C466.6,99.7,467.2,100.2,468,100.6z M467.3,97.8c0.1-0.2,0.4-0.3,0.9-0.4c0.5-0.1,0.9-0.1,1.2,0c0.3,0.1,0.6,0.3,0.7,0.6
				c0.2,0.3,0.2,0.6,0.1,0.8c-0.1,0.2-0.5,0.3-0.9,0.4c-0.5,0.1-0.8,0.1-1.2,0c-0.3-0.1-0.6-0.3-0.8-0.6
				C467.2,98.3,467.2,98,467.3,97.8z"/>
		</g>
	</g>
	<g>
		<path class="st1" d="M400.4,148.8l1.4,4.3l-2-2.6c-0.8-1.1-1.5-1.9-1.9-2.3c-0.4-0.4-0.8-0.7-1.2-0.9c-0.7-0.3-1.1-0.2-1.3,0.3
			c-0.2,0.5-0.1,1.3,0.3,2.5c0.2,0.5,0.4,1.1,0.6,1.7c0.2,0.6,0.5,1.2,0.8,1.8l0,0l1.6,0.6c-0.4-0.6-0.8-1.2-1-1.7
			c-0.3-0.5-0.5-1-0.6-1.4c-0.2-0.5-0.2-0.9-0.1-1.1c0.1-0.2,0.3-0.3,0.6-0.1c0.2,0.1,0.4,0.3,0.7,0.5s0.5,0.6,0.8,1l3.4,4.5
			l1.4,0.6l-2.3-7.1L400.4,148.8z"/>
	</g>
	<g>
		<g>
			<path class="st1" d="M420.7,112.8L420.7,112.8l4.6-2.9l1.2,2.2l2.5-1.6l-1.3-2.2l1.5-1L428,105l-1.5,0.9l-4.4-7.8l-2.9,1.9l0,10
				L420.7,112.8z M421.1,102.4l2.9,5.2l-2.9,1.9L421.1,102.4z"/>
		</g>
	</g>
	<g>
		<path class="st1" d="M395.3,128.7L395.3,128.7c0.1,0,0.2,0,0.3,0c0.4,0,0.8,0,1.2-0.1c1.1-0.2,2.1-0.6,2.9-1.2
			c0.8-0.6,1.3-1.4,1.7-2.4c0.2-0.7,0.3-1.2,0.2-1.5c-0.1-0.4-0.4-0.6-0.9-0.7c0.5-0.2,1-0.6,1.4-1c0.4-0.4,0.7-0.9,0.9-1.5
			c0.3-0.8,0.3-1.4-0.1-1.8c-0.4-0.3-1-0.4-2.1-0.2c-0.4,0.1-0.8,0.2-1.2,0.3c-0.4,0.1-0.8,0.3-1.3,0.5l-0.7,1.9
			c0.4-0.2,0.8-0.4,1.1-0.6s0.7-0.3,1-0.3c0.4-0.1,0.8,0,0.9,0.1c0.2,0.2,0.2,0.4,0,0.8c-0.2,0.4-0.4,0.7-0.7,1
			c-0.3,0.2-0.8,0.4-1.3,0.5l-0.8,0.1l-0.6,1.7l0.8-0.1c0.6-0.1,1,0,1.2,0.2c0.2,0.2,0.2,0.5,0.1,0.9c-0.2,0.4-0.4,0.8-0.8,1.1
			c-0.4,0.3-0.8,0.5-1.4,0.5c-0.4,0.1-0.7,0.1-1,0c-0.3-0.1-0.6-0.2-0.9-0.3l-0.2,0.5l-0.8,0.1l3-8.1l-1.9,0.3l-2,0.8l-0.6,1.7
			l2-0.8l-2.3,6.4l-1.8,0.3l-0.7,1.8l0,0L395.3,128.7z"/>
	</g>
	<g>
		<polygon class="st1" points="439.1,138.7 436.3,137.5 440.6,127.6 437.6,126.3 434.5,125.7 433.6,127.8 436.7,128.4 433.3,136.2 
			430.6,135.1 429.7,137.2 438.1,140.8 		"/>
	</g>
	<g>
		<g>
			<path class="st1" d="M425.6,155.9c-1.6-0.7-3-0.7-4.3,0.1c-1.3,0.8-2.3,2.2-3,4.2c-0.7,2.1-0.9,3.8-0.4,5.3
				c0.5,1.5,1.5,2.6,3.1,3.3c1.6,0.7,3,0.6,4.3-0.1c1.3-0.7,2.3-2.2,3-4.2c0.7-2.1,0.9-3.8,0.4-5.3
				C428.2,157.7,427.2,156.6,425.6,155.9z M425.2,163.2c-0.5,1.6-1.1,2.6-1.6,3.1c-0.5,0.5-1.1,0.6-1.8,0.4c-0.7-0.3-1-0.8-1.1-1.6
				c-0.1-0.8,0.2-1.9,0.7-3.5c0.6-1.6,1.1-2.6,1.6-3.1c0.5-0.5,1.1-0.7,1.8-0.4c0.7,0.3,1,0.8,1.1,1.6S425.8,161.6,425.2,163.2z"/>
		</g>
	</g>
	<g>
		<g>
			<path class="st1" d="M478.7,160.8c0,0.1,0,0.1,0,0.2c-0.1,1,0,1.8,0.4,2.4c0.2,0.3,0.4,0.4,0.6,0.5l0,0c0.2,0.1,0.5,0.1,0.7,0
				c0.5-0.2,1-0.8,1.4-1.6c0.4-0.8,0.6-1.6,0.7-2.3c0.1-0.8-0.1-1.4-0.4-1.8c-0.1-0.2-0.3-0.3-0.4-0.4c-0.2-0.1-0.3-0.1-0.5,0
				c0.4-0.7,0.7-1.1,1-1.2c0.3-0.2,0.6-0.1,0.8,0.3c0.1,0.2,0.2,0.4,0.3,0.6c0.1,0.2,0.2,0.5,0.2,0.9l0.8-1.5
				c-0.1-0.3-0.2-0.6-0.3-0.8c-0.1-0.2-0.2-0.5-0.4-0.7c-0.5-0.6-1-0.8-1.7-0.4c-0.7,0.4-1.4,1.3-2.1,2.6c-0.5,1-0.9,1.9-1.1,2.8
				l-0.6-0.9l3.5-6.7l-0.8-1.1l-1-0.6l-0.7,1.4l0.9,0.6l-2.8,5.3l-0.7-1l-0.8,1.5l2.2,3.1L478.7,160.8z M479.6,161.3
				c0.1-0.3,0.2-0.7,0.5-1.2c0.3-0.5,0.5-0.8,0.7-0.9c0.2-0.1,0.4-0.1,0.5,0.1c0.1,0.2,0.2,0.5,0.1,0.8c-0.1,0.3-0.2,0.7-0.5,1.2
				c-0.3,0.5-0.5,0.8-0.7,0.9c-0.1,0.1-0.2,0.1-0.3,0.1l0,0c-0.1,0-0.2-0.1-0.2-0.2C479.6,161.9,479.6,161.7,479.6,161.3z"/>
		</g>
	</g>
	<g>
		<path class="st1" d="M124.8,144.5c0.2,1.5,1.5,2.6,3.1,2.5l16.7-1.8l1.8,16.7c0.2,1.5,1.5,2.6,3.1,2.5l13.1-1.4
			c1.5-0.2,2.6-1.5,2.5-3.1l-1.8-16.7l16.7-1.8c1.5-0.2,2.6-1.5,2.5-3.1l-1.4-13.1c-0.2-1.5-1.5-2.6-3.1-2.5l-16.7,1.8l-1.8-16.7
			c-0.2-1.5-1.5-2.6-3.1-2.5l-13.1,1.4c-1.5,0.2-2.6,1.5-2.5,3.1l1.8,16.7l-16.7,1.8c-1.5,0.2-2.6,1.5-2.5,3.1L124.8,144.5z"/>
	</g>
	<g>
		<path class="st1" d="M208.1,150.5c0.2,1.5,1.5,2.6,3.1,2.5l14.6-1.6c1.5-0.2,2.6-1.5,2.5-3.1l-0.4-3.3c-0.2-1.5-1.5-2.6-3.1-2.5
			l-14.6,1.6c-1.5,0.2-2.6,1.5-2.5,3.1L208.1,150.5z"/>
	</g>
	<g>
		<path class="st1" d="M234.3,147.6c0.2,1.5,1.5,2.6,3.1,2.5l14.6-1.6c1.5-0.2,2.6-1.5,2.5-3.1l-0.4-3.3c-0.2-1.5-1.5-2.6-3.1-2.5
			l-14.6,1.6c-1.5,0.2-2.6,1.5-2.5,3.1L234.3,147.6z"/>
	</g>
	<g>
		<ellipse transform="matrix(0.6251 -0.7805 0.7805 0.6251 6.777 281.0618)" class="st1" cx="296" cy="133.5" rx="14.5" ry="14.5"/>
	</g>
	<g>
		
			<ellipse transform="matrix(0.9848 -0.1737 0.1737 0.9848 -17.4106 59.8381)" class="st1" cx="333.1" cy="129.4" rx="14.5" ry="14.5"/>
	</g>
	<g>
		<path class="st1" d="M660.9,108.9l-2.9-7.8c-0.5-2.5-1.4-5-2.7-7.3l0-0.1l0,0c-6.7-12.3-22.9-22.6-33-29c-0.7-0.4-1.4-0.9-2.1-1.3
			c0.8-4.1,1.7-10.7,0.2-17.3c-1.6-7.3-6.5-16.8-20.7-20.5c-0.7-0.2-1.3-0.3-2-0.5c0,0,0,0,0,0C587.1,22.9,578,26,571.3,34
			c-4.2,5-6.4,10.9-7.7,14.8c-0.8,0.1-1.6,0.1-2.4,0.2c-17,1-48.5,2.9-52.8,22.9c-1.3,6.1-0.2,10.7,1.7,14.1l-0.2-0.1l2.5,7.8
			c0.2,1,0.5,1.9,0.9,2.8l0,0l0,0c1.4,3.2,3.5,5.5,5.6,7.1c1.8,1.4,3.8,2.4,5.8,3.3c-0.8,0.9-1.7,1.7-2.5,2.6
			c-5.2,5.4-10.8,11.2-15.6,17.2c0.4-2.2-0.2-4.5-1.5-6.3l-34.7-46.1c-1.8-2.4-4.7-3.6-7.6-3.2l-57.1,7.4c-3,0.4-5.5,2.3-6.6,5.1
			L383.5,122l-5.9-53.6c-0.4-3.8-2.6-7-5.6-9l0,0l0,0c-0.1,0-0.1-0.1-0.2-0.1L361.5,53l0,0c-2.3-1.4-5-2.1-7.9-1.8L106.8,78.4
			C100,79.2,95.1,85.3,95.9,92l10.2,92.3c-3,1.8-6,3.7-8.9,5.9l-0.1,0.1c-14.8,11.5-23.8,25.8-26.9,42.5c-0.7,3.6-1.1,7.3-1.1,10.8
			c0,12.2,3.7,23.2,10.7,32.5h-2L67.6,276L28.3,412.6c-0.5,1.2-1,2.5-1.3,3.8l-7.6,28.2c-4.2,15.6,5,31.6,20.5,35.8
			c1.4,0.4,2.8,0.6,4.2,0.8l161.9,34.9c9.2,2.5,18.7-2.9,21.2-12.2l7.6-28.2c0.3-1.3,0.5-2.5,0.6-3.8c0.9-4.8,0-9.7-2.4-14
			c-2.7-4.8-7.2-8.2-12.5-9.7l-50.6-17.8H448l-50.6,17.8c-5.3,1.5-9.7,4.9-12.5,9.7c-2.5,4.3-3.3,9.2-2.4,14
			c0.1,1.3,0.2,2.5,0.6,3.8l7.6,28.2c2.5,9.2,12,14.7,21.2,12.2l161.9-34.9c1.4-0.2,2.8-0.4,4.2-0.8c12.3-3.3,20.6-14.1,21.5-26.2
			l42-245.7c0,0-0.2-2.5-0.6-6.4c-0.5-5-1.2-12.3-2.3-20c-0.1-0.4-0.1-0.8-0.2-1.1c-0.3-2.3-0.7-4.7-1-7c-1.3-8.4-3-16.4-5-21.4
			c-0.1-0.2-0.2-0.5-0.3-0.7c-0.4-0.9-0.6-1.7-0.6-2.5c-0.1-0.3-0.1-0.6-0.2-0.8c-1.3-4.7-2.9-10.6-3.6-14.5c1,0.2,2,0.4,3.1,0.7
			c1.4,0.3,2.8,0.7,4.3,1c4,0.8,9.3,1.5,14.3-0.1c4.1-1.3,9.5-4.7,12.1-13.2C663.1,117.7,662.6,113.2,660.9,108.9L660.9,108.9z
			 M497.8,126.9l-31.6,35.3c-0.2,0.3-0.4,0.4-0.4,0.5c-0.1,0-0.1-0.1-0.1-0.6l-8-60.2c0-0.5,0-0.9,0.8-0.5l39.3,23.9
			C498.6,125.8,498.4,126.2,497.8,126.9z M435.2,171.8c-0.7,0-1.3-0.2-1.8-0.4c-0.6-0.3-1.1-0.7-1.2-1.1c-0.2-0.5-0.1-1,0.2-1.5
			c0.2-0.3,0.5-0.7,0.9-0.9c0.4-0.2,0.9-0.4,1.5-0.6l6.7-1.8l1.3-2.1l-8.8-3.7l-1.3,2.1l5.3,2.3l-3.9,1c-1.6,0.4-2.8,0.9-3.5,1.2
			c-0.7,0.4-1.2,0.9-1.6,1.5c-0.7,1.1-0.8,2.1-0.3,3c0.4,0.9,1.4,1.7,2.8,2.3l0,0c0.7,0.3,1.4,0.5,2.1,0.7c0.3,0.1,0.6,0.1,0.9,0.2
			h-19.3l-9.3-31.7c-0.2-0.8-0.2-0.8,0.6-0.5l55.1,23.3c0.6,0.3,0.5,0.4-0.2,0.8l-16,8.2h-9.2l1.4-2.3
			C436.7,171.8,435.9,171.9,435.2,171.8z M413,174h-3.4l-23.3-32.2c-0.4-0.6-0.5-0.8,0.5-0.8l15.6-0.4c0.7,0,0.8,0,0.9,0.6L413,174z
			 M406.7,138.7l48-36.6c0.8-0.5,0.8-0.6,1,0.4l8,60.3c0.1,0.8,0.2,0.8-0.6,0.5l-56.3-23.8l0,0C406,139.2,406.3,139,406.7,138.7z
			 M463.9,167.1c0.6-0.3,0.8-0.2,1.3,0.2l6.2,6.7h-10.7c-0.2-0.1-0.5-0.1-0.9-0.1c-0.9-0.1-1.8,0-2.6,0.1h-7L463.9,167.1z
			 M466.6,165.7c-0.3-0.4-0.3-0.4,0.1-0.9l29.7-33.1L476.8,174h-2.6L466.6,165.7z M464.2,81c0.2-0.6,0.3-0.7,0.7-0.1l31.2,40.8h0
			l-37.7-22.9c-0.5-0.3-0.5-0.6-0.3-1.1L464.2,81z M461.8,79.3c0.7-0.1,0.7,0.1,0.5,0.6l-6.2,17c-0.2,0.4-0.2,0.7-0.8,0.6l-44.2-12
			L461.8,79.3z M405,136.6l1.4-49.1c0.1-0.8,0.1-1.1,0.9-0.9l46.4,12.6c0.8,0.2,0.6,0.3,0.1,0.7l-48.3,36.8
			c-0.3,0.2-0.4,0.4-0.5,0.4C404.9,137.3,404.9,137.1,405,136.6z M385.6,138l18.5-46.5l-1.3,46.2c0,0.4-0.1,0.7-0.6,0.8l-16,0.4
			c-0.3,0-0.5,0-0.6-0.1C385.4,138.7,385.4,138.6,385.6,138z M104.4,91.1L104.4,91.1c0-0.2,0-0.3,0-0.4c0-0.3,0-0.6,0.1-0.9
			c0-0.1,0.1-0.3,0.1-0.4c0.1-0.2,0.2-0.5,0.3-0.7c0.2-0.2,0.3-0.5,0.5-0.7c0.1-0.1,0.3-0.2,0.4-0.4c0.1-0.1,0.3-0.2,0.4-0.3
			c0.3-0.2,0.6-0.3,0.9-0.4c0.2,0,0.3-0.1,0.5-0.1l4.5-0.5l60.3-6.7l182-20.1c0.4,0,0.8,0,1.1,0c0.2,0,0.4,0.1,0.5,0.1
			s0.3,0.1,0.5,0.2c0.2,0.1,0.4,0.2,0.6,0.4c0.2,0.2,0.4,0.3,0.5,0.5c0.4,0.4,0.6,0.9,0.8,1.5c0,0.2,0.1,0.4,0.1,0.6l0.4,3.7v0
			l10.3,93.1c0,0.3,0,0.5,0,0.8s-0.1,0.5-0.1,0.7c-0.3,0.9-0.9,1.7-1.8,2.2c-0.4,0.2-0.9,0.4-1.4,0.5l-93.4,10.3
			c-1.8,0.1-3.6,0.3-5.3,0.6l0,0l0,0l-27.2,3l0.7-3.8h-96.8c-10.4,0-20.4,2.1-29.8,6.2l-0.2-1.9L104.4,91.1z M48.9,378.3
			c0.2-0.6,0.5-0.8,1-0.8h4.2c0.5,0,0.7,0.3,0.6,0.8c-0.7,2.9-0.2,4.2,1.5,4.2c1.6,0,2.7-1,3.2-2.7c1.8-6.4-8.1-9-5.6-17.7
			c1.4-4.8,5.4-7.6,10.1-7.6c4.8,0,6.9,3.5,5.5,9.2c-0.2,0.6-0.5,0.8-1,0.8h-4.1c-0.5,0-0.8-0.3-0.6-0.8c0.7-2.6,0.2-3.8-1.2-3.8
			c-1.4,0-2.5,0.7-2.9,2.3c-1.6,5.7,8.3,8.4,5.7,17.7c-1.4,5-5.7,8.1-10.7,8.1C49.5,387.9,47.4,384.3,48.9,378.3z M218.3,455.1
			c0.1,0,0.2,0.1,0.2,0.1c3.6,1,6.5,3.3,8.4,6.5s2.3,6.9,1.3,10.5c-2,7.3-9.6,11.7-16.9,9.7c-0.1,0-0.2,0-0.2-0.1l-149.5-29
			l-6.1-1.2c-0.1,0-0.2,0-0.2,0c-1.3-0.2-2.5-0.4-3.7-0.7c-6.6-1.8-12.2-6.1-15.6-12c-3.4-6-4.3-12.9-2.5-19.5
			c0.5-1.8,1.2-3.5,2-5.1c2.2-4.4,5.7-8,10-10.5c6-3.4,12.9-4.3,19.5-2.5c1.2,0.3,2.4,0.7,3.5,1.2c0.1,0,0.2,0.1,0.2,0.1l80,28.1
			L218.3,455.1z M71.5,379.1l4.5-15.7c1.5-5.3,6-8.8,11-8.8s7.4,3.5,6,8.7l-4.6,16c-1.5,5.2-5.9,8.7-10.9,8.7S69.9,384.4,71.5,379.1
			z M102.2,382.5c1.6,0,2.8-1.2,3.3-2.9l6.8-23.7c0.2-0.6,0.6-0.8,1.1-0.8h4.2c0.5,0,0.8,0.3,0.6,0.8l-6.7,23.3
			c-1.5,5.2-5.8,8.7-10.8,8.7c-5,0-7.2-3.6-5.8-8.7l6.7-23.3c0.2-0.6,0.5-0.8,1.1-0.8h4.2c0.5,0,0.7,0.3,0.5,0.8l-6.8,23.7
			C100,381.4,100.6,382.5,102.2,382.5z M123.5,360.4c-0.5,0-0.7-0.3-0.6-0.8l1.1-3.7c0.1-0.5,0.5-0.8,1-0.8h14.5
			c0.6,0,0.8,0.3,0.6,0.8l-1.1,3.7c-0.1,0.5-0.5,0.8-1.1,0.8h-4.4l-7.5,26.2c-0.2,0.6-0.5,0.8-1,0.8H121c-0.5,0-0.7-0.3-0.5-0.8
			l7.5-26.2H123.5z M153,368.4l3.6-12.6c0.1-0.5,0.5-0.8,1-0.8h4.2c0.5,0,0.7,0.3,0.6,0.8l-8.8,30.7c-0.2,0.6-0.5,0.8-1,0.8h-4.2
			c-0.5,0-0.7-0.3-0.5-0.8l3.7-12.8h-4.7l-3.7,12.8c-0.2,0.6-0.6,0.8-1.1,0.8h-4.1c-0.6,0-0.8-0.3-0.6-0.8l8.8-30.7
			c0.1-0.5,0.5-0.8,1.1-0.8h4.1c0.5,0,0.8,0.3,0.6,0.8l-3.6,12.6H153z M177.9,369.3l-1,3.5c-0.2,0.6-0.5,0.8-1.1,0.8h-6.2l-1.5,5.1
			c-0.6,2.1,0.2,3.5,2.2,3.5h4.2c0.5,0,0.8,0.3,0.6,0.8l-1.1,3.7c-0.1,0.5-0.5,0.8-1.1,0.8h-4.8c-5,0-7.3-3.5-5.8-8.7l4.4-15.4
			c1.5-5.1,5.8-8.6,10.8-8.6h4.8c0.5,0,0.8,0.3,0.6,0.8l-1.1,3.7c-0.2,0.6-0.6,0.8-1.1,0.8h-4.2c-2,0-3.6,1.4-4.2,3.5l-1.4,4.8h6.2
			C177.9,368.5,178,368.8,177.9,369.3z M203.5,363.3l-1.2,4c-0.9,3.3-2.9,5.8-5.5,7.2l1,12c0,0.5-0.5,0.8-1,0.8h-4.5
			c-0.5,0-0.6-0.3-0.6-0.8l-0.6-10.6h-2.2l-3,10.5c-0.2,0.6-0.5,0.8-1,0.8h-4.2c-0.6,0-0.8-0.3-0.6-0.8l6.7-23.3
			c1.5-5.2,5.8-8.8,10.7-8.8C202.7,354.5,205,358.1,203.5,363.3z M227.4,363.2l-6.7,23.3c-0.2,0.6-0.6,0.8-1.1,0.8h-4.2
			c-0.5,0-0.8-0.3-0.6-0.8l6.8-23.7c0.5-1.8-0.1-2.9-1.7-2.9c-1.6,0-2.8,1.2-3.3,2.9l-6.8,23.7c-0.2,0.6-0.5,0.8-1,0.8h-4.2
			c-0.6,0-0.8-0.3-0.6-0.8l6.7-23.3c1.5-5.2,5.8-8.7,10.8-8.7C226.6,354.5,228.8,358.1,227.4,363.2z M241.7,374l-0.9,3
			c-0.1,0.5-0.5,0.8-1.1,0.8h-9.9c-0.5,0-0.7-0.3-0.6-0.8l0.9-3c0.1-0.5,0.5-0.8,1-0.8h9.9C241.7,373.2,241.9,373.5,241.7,374z
			 M261.3,369.3l-1.1,3.7c-0.2,0.6-0.5,0.8-1,0.8h-5.7l-3.6,12.7c-0.2,0.6-0.5,0.8-1,0.8h-4.2c-0.6,0-0.8-0.3-0.6-0.8l6.5-22.8
			c1.5-5.2,5.8-8.7,10.8-8.7h4.1c0.5,0,0.7,0.3,0.6,0.8l-1.1,3.7c-0.1,0.5-0.5,0.8-1,0.8h-3.4c-2,0-3.6,1.4-4.2,3.5l-1.3,4.7h5.7
			C261.2,368.5,261.4,368.8,261.3,369.3z M286.3,363.3l-1.2,4c-0.9,3.3-2.9,5.8-5.5,7.2l1,12c0,0.5-0.5,0.8-1,0.8h-4.5
			c-0.5,0-0.6-0.3-0.6-0.8L274,376h-2.2l-3,10.5c-0.2,0.6-0.5,0.8-1,0.8h-4.2c-0.6,0-0.8-0.3-0.6-0.8l6.7-23.3
			c1.5-5.2,5.8-8.8,10.7-8.8C285.5,354.5,287.8,358.1,286.3,363.3z M291.7,387.4h-4.1c-0.6,0-0.8-0.3-0.6-0.8l8.8-30.7
			c0.1-0.5,0.5-0.8,1.1-0.8h4.1c0.5,0,0.8,0.3,0.6,0.8l-8.8,30.7C292.6,387.1,292.2,387.4,291.7,387.4z M317.2,369.3l-1,3.5
			c-0.2,0.6-0.5,0.8-1.1,0.8h-6.2l-1.5,5.1c-0.6,2.1,0.2,3.5,2.2,3.5h4.2c0.5,0,0.8,0.3,0.6,0.8l-1.1,3.7c-0.1,0.5-0.5,0.8-1.1,0.8
			h-4.8c-5,0-7.3-3.5-5.8-8.7l4.4-15.4c1.5-5.1,5.8-8.6,10.8-8.6h4.8c0.5,0,0.8,0.3,0.6,0.8l-1.1,3.7c-0.2,0.6-0.6,0.8-1.1,0.8H316
			c-2,0-3.6,1.4-4.2,3.5l-1.4,4.8h6.2C317.1,368.5,317.3,368.8,317.2,369.3z M342.6,363.6l-4.4,15.3c-1.5,5.2-5.8,8.7-10.8,8.7h-5.7
			c-1.6,0-2.2-0.8-1.8-2.4l8-27.9c0.5-1.6,1.6-2.4,3.1-2.4h5.7C341.9,354.9,344.1,358.4,342.6,363.6z M377.8,364.3h-4.2
			c-0.5,0-0.8-0.3-0.7-0.8c0.6-2.5,0-3.6-1.4-3.6c-1.5,0-2.7,1.1-3.2,2.9l-4.8,16.8c-0.5,1.8,0.2,2.9,1.8,2.9c1.6,0,2.9-1.1,3.4-2.8
			l1.5-5.2h-1.8c-0.6,0-0.8-0.3-0.6-0.8l1-3.3c0.2-0.6,0.5-0.8,1.1-0.8h5.2c1.6,0,2.1,0.9,1.7,2.4l-2.1,7.3
			c-1.5,5.1-5.9,8.6-10.9,8.6c-5,0-7.3-3.5-5.8-8.7l4.6-16c1.5-5.2,5.8-8.7,10.7-8.7c4.7,0,7.1,3.5,5.7,9
			C378.7,364.1,378.3,364.3,377.8,364.3z M395.4,386.5c-0.2,0.6-0.6,0.8-1.1,0.8h-4.2c-0.5,0-0.8-0.3-0.6-0.8l2.6-9.1h-5l-2.6,9.1
			c-0.2,0.6-0.5,0.8-1,0.8h-4.2c-0.6,0-0.8-0.3-0.6-0.8l6.7-23.3c1.5-5.3,5.8-8.7,10.8-8.7c5,0,7.3,3.5,5.8,8.7L395.4,386.5z
			 M428.2,386.5c-0.2,0.6-0.6,0.8-1.1,0.8H423c-0.5,0-0.7-0.3-0.5-0.8l6.8-23.6c0.5-1.9,0.1-3-1.4-3c-1.4,0-2.5,1.1-3.1,3l-6.8,23.6
			c-0.2,0.6-0.5,0.8-1.1,0.8h-4.1c-0.5,0-0.7-0.3-0.5-0.8l6.8-23.6c0.5-1.9,0-3-1.4-3c-1.4,0-2.5,1.1-3.1,3l-6.8,23.6
			c-0.2,0.6-0.5,0.8-1.1,0.8h-4.1c-0.6,0-0.8-0.3-0.6-0.8l6.7-23.2c1.5-5.3,5.7-8.8,10.5-8.8c2.2,0,3.5,0.8,4.5,2
			c1.7-1.2,3.5-2,5.7-2c4.8,0,7,3.5,5.5,8.8L428.2,386.5z M439.8,387.4h-4.1c-0.6,0-0.8-0.3-0.6-0.8l8.8-30.7
			c0.1-0.5,0.5-0.8,1.1-0.8h4.1c0.5,0,0.8,0.3,0.6,0.8l-8.8,30.7C440.8,387.1,440.4,387.4,439.8,387.4z M447.8,386.5l6.7-23.3
			c1.5-5.2,5.8-8.7,10.8-8.7c5,0,7.3,3.6,5.8,8.7l-6.7,23.3c-0.2,0.6-0.6,0.8-1.1,0.8h-4.2c-0.5,0-0.8-0.3-0.6-0.8l6.8-23.7
			c0.5-1.8-0.1-2.9-1.7-2.9c-1.6,0-2.8,1.2-3.3,2.9l-6.8,23.7c-0.2,0.6-0.5,0.8-1,0.8h-4.2C447.8,387.4,447.6,387.1,447.8,386.5z
			 M584.3,433.2c-0.6,1.9-1.4,3.8-2.4,5.6c-3.4,6-8.9,10.2-15.6,12c-1.2,0.3-2.4,0.6-3.7,0.7c-0.1,0-0.2,0-0.2,0l-6.1,1.2l-149.5,29
			c-0.1,0-0.2,0-0.2,0.1c-7.3,2-14.9-2.4-16.9-9.7c-1-3.6-0.5-7.3,1.3-10.5s4.8-5.5,8.4-6.5c0.1,0,0.2,0,0.2-0.1l69.5-24.5l80-28.1
			c0.1,0,0.2-0.1,0.2-0.1c1.2-0.5,2.4-0.9,3.5-1.2c6.6-1.8,13.6-0.9,19.5,2.5c0.8,0.4,1.5,0.9,2.2,1.4c2.7,1.9,5,4.3,6.7,7.1
			c1.4,2.2,2.4,4.5,3.1,7C585.7,423.9,585.7,428.7,584.3,433.2z M486.8,359.9c-1.5,0-2.7,1.1-3.2,2.9l-4.8,16.8
			c-0.5,1.8,0.2,2.9,1.8,2.9c1.6,0,2.9-1.1,3.4-2.8l1.5-5.2h-1.8c-0.6,0-0.8-0.3-0.6-0.8l1-3.3c0.2-0.6,0.5-0.8,1.1-0.8h5.2
			c1.6,0,2.1,0.9,1.7,2.4l-2.1,7.3c-1.5,5.1-5.9,8.6-10.9,8.6c-5,0-7.3-3.5-5.8-8.7l4.6-16c1.5-5.2,5.8-8.7,10.7-8.7
			c4.7,0,7.1,3.5,5.7,9c-0.2,0.6-0.5,0.8-1,0.8h-4.2c-0.5,0-0.8-0.3-0.7-0.8C488.8,361,488.1,359.9,486.8,359.9z M533.1,365l2.6-9.2
			c0.1-0.5,0.5-0.8,1.1-0.8h4.2c0.5,0,0.7,0.3,0.6,0.8l-2.8,9.6c-0.5,1.7,0.1,2.9,1.6,2.9c1.5,0,2.7-1.2,3.2-2.9l2.8-9.6
			c0.1-0.5,0.5-0.8,1.1-0.8h4.2c0.5,0,0.8,0.3,0.6,0.8l-2.6,9.2c-0.7,2.5-2.2,4.5-4.4,6c1.3,1.5,1.6,3.5,0.9,6l-2.7,9.6
			c-0.2,0.6-0.6,0.8-1.1,0.8h-4.2c-0.5,0-0.8-0.3-0.6-0.8l2.9-10c0.5-1.7-0.1-2.9-1.6-2.9c-1.4,0-2.7,1.2-3.2,2.9l-2.9,10
			c-0.2,0.6-0.5,0.8-1,0.8h-4.2c-0.6,0-0.8-0.3-0.6-0.8l2.7-9.6c0.7-2.4,2.2-4.5,4.3-6C532.7,369.6,532.4,367.5,533.1,365z
			 M556.5,363.3c1.5-5.2,5.7-8.8,10.6-8.8c5,0,7.4,3.6,5.9,8.8l-1.3,4.4c-1.5,5.1-5.7,8.5-10.7,8.5h-2.5l-3,10.3
			c-0.2,0.6-0.5,0.8-1,0.8h-4.2c-0.6,0-0.8-0.3-0.6-0.8L556.5,363.3z M529.8,355.7l-1.1,3.7c-0.2,0.6-0.6,0.8-1.1,0.8h-4.2
			c-2,0-3.6,1.4-4.2,3.5l-1.4,4.8h6.2c0.6,0,0.7,0.3,0.6,0.8l-1,3.5c-0.2,0.6-0.5,0.8-1.1,0.8h-6.2l-1.5,5.1
			c-0.6,2.1,0.2,3.5,2.2,3.5h4.2c0.5,0,0.8,0.3,0.6,0.8l-1.1,3.7c-0.1,0.5-0.5,0.8-1.1,0.8h-4.8c-5,0-7.3-3.5-5.8-8.7l4.4-15.4
			c1.5-5.1,5.8-8.6,10.8-8.6h4.8C529.7,354.9,529.9,355.2,529.8,355.7z M595.9,363.2l-4.6,16c-1.5,5.2-5.9,8.7-10.9,8.7
			s-7.5-3.5-6-8.8l4.5-15.7c1.5-5.3,6-8.8,11-8.8S597.4,358.1,595.9,363.2z M632.4,180.5l-0.8,4.3l-3.2,17.1l-3.9,20.5l-1.7,9.2h0
			l-9.3,51.1h0.1l-7.4,39.2l-4.1,21.8h-18.7h-64.8c-14.1,0-26.3-4.3-36.1-12.7c-0.3-0.3-0.6-0.5-0.9-0.8c-1.7-1.5-3.2-3.1-4.7-4.8
			l-1.5,7.9l-1.9,10.3h-95c-14.6,0-27-4.5-37-13.5c-9.2-8.2-14.5-18.9-15.5-31.1c-0.1-1.4-0.2-2.8-0.2-4.3c0-0.7,0-1.5,0-2.2h-6.5
			H267l-9.5,51.1h-67.2l0.4-2l1.5-8.3c-2.4,1.5-4.9,2.8-7.3,3.9c-9.1,4.3-18.8,6.4-28.8,6.4H56.6l17.4-61h21.5
			c-1.6-1.1-3.1-2.4-4.6-3.7c-0.9-0.8-1.8-1.7-2.6-2.6c-8.4-8.9-12.9-20.1-12.9-32.7c0-3.1,0.3-6.4,1-9.6
			c2.8-15.2,11-28.1,24.5-38.6l0.1-0.1c2-1.5,4-2.9,6-4.2c2.6-1.6,5.2-3,7.9-4.3c9.2-4.3,18.9-6.5,29.1-6.5h71.7h0H233l-1.8,9.8
			l-0.9,4.7l-1,5.5c1.8-1.7,3.8-3.4,5.9-5l0.2-0.1c0.5-0.4,1-0.7,1.5-1.1c0.1-0.1,0.2-0.2,0.3-0.2c12.6-9,26.5-13.5,41.3-13.5h83.1
			h5.2l-0.7,3.7l-1.6,8.7c2.4-1.6,4.9-3.1,7.4-4.4c10-5.2,20.8-7.9,32.1-7.9h0.8h9.6h0.6h2.3h15.5h4.8h18.3h27.1h21l-1,5.7l-1.7,9.1
			c2.5-1.9,5-3.5,7.5-5.1c9.9-5.9,20.6-9.1,32-9.6c1.2-0.1,2.3-0.1,3.5-0.1h8h24.8h6.7h27.9H626H632.4z M650.9,108.2
			c-5.6,18.5-26.8,2.8-33.3,7c-5.4,3.5,10.3,38.2,9.5,58.9h-40.8c-0.1,0-0.2,0-0.2-0.1c-4.5-1.1-5.4-4.1-6.8-8.2
			c-0.6-1.7-1.2-3.7-1.7-5.6c-2.5-8.4-4.9-17.8-7.6-18.5c-3.3-0.9-12.7,10.1-19.8,16.6c-3.2,2.9-5.5,5.1-9.9,3.9
			c-7.9-2-16.3-4.2-25.1-6.4c-2.2-0.6-4.5-1.2-6.8-1.7c-3.2-0.8-5.1-1.7-5.9-3.2c-0.2-0.3-0.3-0.7-0.3-1.1c-0.2-1.3,0.2-2.9,1.1-5.2
			c4.8-11.5,19.1-25.1,28.7-35.3c6.1-6.4,10.3-11.5,9-13.8c-3.3-6.2-25.1-3.9-26.2-17.4c-0.1-1.4,0-3,0.4-4.8
			c4-18.9,51.1-16.5,53.5-18.1c1.2-0.8,5.1-29.1,29.3-22.8c18.3,4.7,16.9,21,15.5,29.3c-0.5,2.7-1,4.5-0.8,4.8
			c0.5,0.9,5.4,3.7,11.6,7.8c4.7,3.1,10.1,6.9,14.9,11.1C647.2,92.3,653.2,100.4,650.9,108.2z"/>
	</g>
	<g>
		<path class="st1" d="M588.5,359.9c-1.6,0-3,1.2-3.5,3l-4.7,16.5c-0.5,1.9,0.2,3,1.8,3s2.9-1.1,3.5-2.9l4.8-16.8
			C590.8,361.1,590.1,359.9,588.5,359.9z"/>
	</g>
	<g>
		<path class="st1" d="M278.9,360c-1.5,0-2.8,1.1-3.3,2.9l-2.3,7.8h2.1c1.9,0,3.2-1.2,3.8-3.2l1.3-4.6
			C281.1,361.1,280.5,360,278.9,360z"/>
	</g>
	<g>
		<path class="st1" d="M394.7,360c-1.6,0-2.8,1.1-3.3,2.9l-2.7,9.3h5l2.7-9.3C396.8,361.1,396.2,360,394.7,360z"/>
	</g>
	<g>
		<path class="st1" d="M335,360.2h-2l-6.3,22.1h2c1.8,0,3.1-1.2,3.7-3.2l4.5-15.7C337.5,361.3,336.9,360.2,335,360.2z"/>
	</g>
	<g>
		<path class="st1" d="M565.9,367.8l1.4-5c0.5-1.8-0.1-2.9-1.7-2.9c-1.5,0-2.8,1.1-3.3,2.9l-2.3,8h2.1
			C564.1,370.9,565.3,369.9,565.9,367.8z"/>
	</g>
	<g>
		<path class="st1" d="M196.1,360c-1.5,0-2.8,1.1-3.3,2.9l-2.3,7.8h2.1c1.9,0,3.2-1.2,3.8-3.2l1.3-4.6
			C198.4,361.1,197.7,360,196.1,360z"/>
	</g>
	<g>
		<path class="st1" d="M79,382.5c1.6,0,2.9-1.1,3.5-2.9l4.8-16.8c0.5-1.8-0.2-2.9-1.8-2.9s-3,1.2-3.5,3l-4.7,16.5
			C76.6,381.4,77.4,382.5,79,382.5z"/>
	</g>
	<g>
		<path class="st1" d="M211.7,280.5c0-0.5,0-0.9,0-1.4c-0.3-9.6-4.1-17.7-11.2-24.2c-7.5-6.8-17-10.2-28.6-10.2h-37.1
			c-1.8,0-3.2-0.8-4.1-2.4s-1.2-3.5-0.8-5.7c0.4-1.9,1.3-3.7,2.7-5.4c1.5-1.7,3.2-2.6,5.1-2.6h73.1l6-32l0.6-3h-73.3
			c-9.7,0-18.7,2.4-27.3,7.1c-2.7,1.5-5.3,3.2-7.8,5.1c-11,8.5-17.5,18.8-19.7,30.8c-0.5,2.4-0.7,4.8-0.7,7.2
			c0,10.3,3.7,18.8,11.2,25.6c3.7,3.3,7.8,5.9,12.4,7.6c4.8,1.8,10.1,2.7,16,2.7h37.3c1.7,0,3,0.8,4,2.4c1,1.6,1.2,3.5,0.7,5.7
			c-0.2,1.9-1.1,3.6-2.6,5.1c-1.6,1.9-3.3,2.8-5.1,2.8H84.9l-9.6,35h80.8c12.7,0,24.4-4.2,35.3-12.5c10.8-8.3,17.4-18.5,19.6-30.5
			C211.4,285.2,211.7,282.8,211.7,280.5z"/>
	</g>
	<g>
		<path class="st1" d="M262.6,244.6l1.5-8.1c0.4-1.9,1.3-3.7,2.7-5.4c1.5-1.7,3.1-2.6,4.9-2.6h72.9l6.4-35h-72.7
			c-12.7,0-24.4,4.1-35.3,12.2c-11,8.5-17.5,18.8-19.7,30.8l-7.9,42.6l-9.5,51.5h40.7l9.4-50.7l0.1-0.4h78.9l6.6-35H262.6z"/>
	</g>
	<g>
		<path class="st1" d="M410.1,278.9h21.4l-2.9,16.8h-41.9h-1.6c-0.8,0-1.5-0.2-2.1-0.4c-0.9-0.4-1.6-1.2-2.1-2.2
			c-0.9-1.8-1.1-3.5-0.7-5.3l9.3-51.3c0.4-1.9,1.3-3.7,2.8-5.4c1.5-1.7,3.2-2.6,5-2.6h84.4l6.4-35h-60h-13.3h-11
			c-12.8,0-24.5,4.1-35.3,12.2c-11,8.5-17.5,18.8-19.7,30.8l-9.3,50l-0.2,1c-0.4,2.4-0.5,4.8-0.5,7.2c0,10.4,3.8,19,11.3,25.7
			c7.6,6.8,17,10.1,28.3,10.1h84.2l4.7-25.4l11.4-61.4h-62.3L410.1,278.9z"/>
	</g>
	<g>
		<path class="st1" d="M544,193.5c-12.8,0-24.5,4.1-35.3,12.2c-11,8.5-17.5,18.8-19.7,30.8l-9.5,51.1c-0.4,2.4-0.5,4.8-0.5,7.2
			c0,4.4,0.7,8.4,2,12.1c1.8,5.1,4.9,9.7,9.3,13.6c7.6,6.8,17,10.1,28.3,10.1h69.2h3.5l1.9-10.4l2.4-12.9l2.2-11.7h-72.7
			c-1.9,0-3.4-0.9-4.2-2.7c-0.9-1.8-1.1-3.5-0.7-5.3l1.5-8.1h79.1l6.4-35h-79.1l1.5-8.1c0.4-1.9,1.3-3.7,2.8-5.4
			c1.5-1.7,3.2-2.6,5-2.6h72.7l5.4-28.6l1.2-6.4h-26H544z"/>
	</g>
	<g>
		<path class="st1" d="M55.7,405.8c-6,1-11,4.7-13.8,9.6c-2.3,3.9-3.2,8.6-2.4,13.4c1.6,9.2,9.3,15.8,18.2,16.5
			c-9.1-6.2-13.9-15.5-11.2-23.7c0.6-1.7,1.4-3.3,2.5-4.7c4.3-5.4,12.4-8.4,21.5-7.9C66.3,406.2,61.1,404.9,55.7,405.8z"/>
	</g>
	<g>
		<path class="st1" d="M574.8,413.7c-0.3-0.4-0.5-0.7-0.8-1.1c-2.9-3.5-7-6-11.8-6.8c-5.4-0.9-10.6,0.4-14.7,3.3
			c8.2-0.5,15.5,1.9,20,6.3c1.8,1.8,3.2,3.9,4,6.3c2.6,8.2-2.1,17.5-11.2,23.7c8.9-0.6,16.6-7.3,18.2-16.5c0.3-1.7,0.3-3.4,0.2-5
			C578.3,420.1,577,416.6,574.8,413.7z"/>
	</g>
</g>
</svg>
